<svg width="40" height="40" viewBox="0 0 40 40" fill="none" xmlns="http://www.w3.org/2000/svg">
<path d="M0 0H40V40H0V0Z" fill="none"/>
<path d="M16.6733 24.0685L16.333 29.1667C16.833 29.1667 17.054 28.938 17.333 28.6667L19.7353 26.3308L24.733 30.0232C25.6528 30.5306 26.3166 30.2679 26.5457 29.1692L29.8265 13.7087C30.1624 12.362 29.3132 11.7512 28.4333 12.1507L9.1683 19.5792C7.85329 20.1067 7.86095 20.8403 8.9286 21.1672L13.8724 22.7103L25.3179 15.4894C25.8583 15.1618 26.3542 15.3379 25.9471 15.6992L16.673 24.0683L16.6733 24.0685Z" fill="#BB8C5F"/>
<path d="M0 0V-1.42857H-1.42857V0H0ZM40 0H41.4286V-1.42857H40V0ZM40 40V41.4286H41.4286V40H40ZM0 40H-1.42857V41.4286H0V40ZM0 1.42857H40V-1.42857H0V1.42857ZM38.5714 0V40H41.4286V0H38.5714ZM40 38.5714H0V41.4286H40V38.5714ZM1.42857 40V0H-1.42857V40H1.42857Z" fill="#BB8C5F"/>
</svg>
