<svg width="40" height="40" viewBox="0 0 40 40" fill="none" xmlns="http://www.w3.org/2000/svg">
<path d="M0 0H40V40H0V0Z" fill="none"/>
<path d="M25.3198 16.9109C25.2296 16.1762 25.0044 15.5994 24.6044 15.0885C24.085 14.4305 23.4212 14.0366 22.4385 13.8028C21.7981 13.6471 21.5394 13.665 21.3077 13.8771C21.092 14.0758 21.0499 14.4742 21.2147 14.7321C21.3307 14.9194 21.4644 14.9865 21.8365 15.0597C22.3319 15.151 22.6743 15.2696 22.9857 15.4482C23.6468 15.8308 23.9546 16.4296 23.9876 17.399C24.003 17.8541 24.0422 17.9941 24.2008 18.1555C24.4947 18.4506 25.0178 18.3932 25.2397 18.0401C25.3211 17.907 25.3335 17.8491 25.3421 17.54C25.3478 17.3486 25.3396 17.0638 25.3198 16.9109V16.9109Z" fill="#BB8C5F"/>
<path d="M27.909 17.7392C27.7785 15.4885 26.9003 13.6776 25.3287 12.4036C24.4432 11.6877 23.3729 11.1954 22.1996 10.956C21.7699 10.8704 20.9786 10.801 20.8428 10.8407C20.7147 10.8774 20.5336 11.0165 20.4528 11.1422C20.3674 11.2786 20.3482 11.583 20.421 11.7591C20.5386 12.0535 20.7573 12.1576 21.3699 12.2113C22.3143 12.2941 23.2884 12.6267 24.0244 13.1192C24.8646 13.6798 25.5325 14.4467 25.9646 15.3478C26.338 16.1221 26.5676 17.2379 26.5612 18.237C26.5591 18.5984 26.6148 18.8025 26.7597 18.9517C26.9785 19.1811 27.2975 19.2313 27.579 19.0789C27.891 18.9144 27.9639 18.6257 27.909 17.7392V17.7392Z" fill="#BB8C5F"/>
<path d="M30.7738 26.4069C30.7299 26.2782 30.6275 26.0798 30.5542 25.9658C30.093 25.2676 27.615 23.3235 26.3778 22.6877C25.6714 22.324 25.148 22.2027 24.76 22.3166C24.3427 22.4342 24.1231 22.6289 23.424 23.4999C23.1422 23.8491 22.853 24.1762 22.7761 24.2276C22.5858 24.3599 22.2124 24.4665 21.9489 24.4665C21.3376 24.4628 20.2286 24.0659 19.3757 23.544C18.7132 23.1398 17.864 22.4159 17.2125 21.6992C16.4438 20.8576 15.9204 20.1153 15.5068 19.2774C14.9724 18.2006 14.837 17.5428 15.0602 17.0613C15.1151 16.9401 15.1883 16.8115 15.2212 16.771C15.2542 16.7343 15.5983 16.4513 15.9789 16.1426C16.7257 15.5473 16.8464 15.4113 16.9855 15.0034C17.1612 14.4851 17.1137 13.956 16.8428 13.4231C16.6341 13.0188 16.0888 12.1368 15.6935 11.5672C15.17 10.8176 13.867 9.21526 13.607 8.99837C13.1385 8.61621 12.5383 8.55002 11.8757 8.80732C11.1767 9.07928 9.86625 10.1377 9.30621 10.8764C8.80109 11.5452 8.60716 12.0192 8.57784 12.644C8.55224 13.1585 8.59615 13.3716 8.86701 14.0295C10.9863 19.1892 14.1488 23.3088 18.4936 26.5796C20.763 28.2885 23.1165 29.5894 25.5579 30.4788C26.9818 30.997 27.6004 31.0227 28.3288 30.5964C28.6362 30.4126 29.3976 29.6299 29.8222 29.0602C30.5249 28.1121 30.7848 27.6748 30.858 27.3256C30.9093 27.0868 30.869 26.6715 30.7738 26.4069V26.4069Z" fill="#BB8C5F"/>
<path d="M30.5447 18.256C30.4978 16.9829 30.284 15.9386 29.8381 14.7743C29.3979 13.629 28.9524 12.8817 28.1111 11.8708C27.3156 10.9231 26.6978 10.3819 25.7179 9.77953C24.3508 8.94024 22.6871 8.38483 20.8226 8.15125C20.1867 8.06962 20.0429 8.07545 19.8478 8.20593C19.4698 8.45313 19.4748 9.06968 19.854 9.31316C19.9796 9.39062 20.091 9.41883 20.5996 9.48557C21.3803 9.59095 21.8824 9.69027 22.4781 9.85321C24.8142 10.4934 26.6106 11.802 27.8116 13.7444C28.8167 15.3635 29.2339 16.9827 29.1746 19.0507C29.154 19.7499 29.169 19.8729 29.2756 20.0409C29.4798 20.354 30.0181 20.4159 30.2943 20.1561C30.4662 19.9978 30.4986 19.8789 30.5324 19.2805C30.5486 18.9684 30.5521 18.5076 30.5447 18.256V18.256Z" fill="#BB8C5F"/>
<path d="M0 0V-1.42857H-1.42857V0H0ZM40 0H41.4286V-1.42857H40V0ZM40 40V41.4286H41.4286V40H40ZM0 40H-1.42857V41.4286H0V40ZM0 1.42857H40V-1.42857H0V1.42857ZM38.5714 0V40H41.4286V0H38.5714ZM40 38.5714H0V41.4286H40V38.5714ZM1.42857 40V0H-1.42857V40H1.42857Z" fill="#BB8C5F"/>
</svg>
