<svg width="28" height="28" viewBox="0 0 28 28" fill="none" xmlns="http://www.w3.org/2000/svg">
<path fill-rule="evenodd" clip-rule="evenodd" d="M22.2622 14.6259V14.6228C22.7617 14.1001 23.1546 13.4846 23.4183 12.8106C23.6972 12.0975 23.8257 11.3345 23.7955 10.5694C23.7652 9.80427 23.577 9.0537 23.2427 8.36487C22.9083 7.67604 22.435 7.06385 21.8526 6.56679C21.2702 6.06974 20.5912 5.69857 19.8584 5.47664C19.1256 5.25471 18.3548 5.18682 17.5944 5.27723C16.8341 5.36764 16.1007 5.61441 15.4404 6.002C14.8936 6.32291 14.4068 6.73462 14.0002 7.21855C13.5937 6.73462 13.1068 6.32291 12.5601 6.002C11.8998 5.61441 11.1664 5.36764 10.406 5.27723C9.64569 5.18682 8.87488 5.25471 8.14205 5.47664C7.40923 5.69857 6.73026 6.06974 6.14784 6.56679C5.56541 7.06385 5.09214 7.67604 4.75779 8.36487C4.42343 9.0537 4.23523 9.80427 4.20501 10.5694C4.17479 11.3345 4.30321 12.0975 4.58219 12.8106C4.86118 13.5236 5.28471 14.1713 5.82611 14.7127L14.0002 22.8858L22.2622 14.6259Z" fill="#BB8C5F"/>
</svg>
