<svg width="40" height="40" viewBox="0 0 40 40" fill="none" xmlns="http://www.w3.org/2000/svg">
<path d="M0 0H40V40H0V0Z" fill="none"/>
<path fill-rule="evenodd" clip-rule="evenodd" d="M32.4564 19.0442C32.4538 25.5998 27.1209 30.934 20.5639 30.9367H20.5589C18.5685 30.936 16.6128 30.4366 14.8757 29.4892L8.57129 31.1429L10.2585 24.9803C9.21773 23.1767 8.6701 21.1309 8.671 19.0348C8.67361 12.4777 14.0086 7.14294 20.5637 7.14294C23.7452 7.14432 26.7311 8.38283 28.9765 10.6308C31.2218 12.8786 32.4577 15.8666 32.4564 19.0442ZM11.4267 28.3176L15.1678 27.3362L15.5288 27.5505C17.0464 28.4511 18.7861 28.9276 20.5598 28.9283H20.5638C26.012 28.9283 30.4462 24.4939 30.4484 19.0436C30.4494 16.4023 29.4222 13.9189 27.556 12.0505C25.6898 10.1821 23.2079 9.15261 20.5677 9.1517C15.1154 9.1517 10.6811 13.5856 10.6789 19.0356C10.6782 20.9033 11.2007 22.7223 12.1902 24.296L12.4252 24.67L11.4267 28.3176Z" fill="#BB8C5F"/>
<path d="M26.32 22.6152C26.2458 22.4913 26.0477 22.4169 25.7505 22.2681C25.4534 22.1194 23.9924 21.4006 23.72 21.3014C23.4477 21.2022 23.2495 21.1527 23.0514 21.4501C22.8534 21.7475 22.2839 22.4169 22.1105 22.6152C21.9372 22.8135 21.7638 22.8384 21.4668 22.6896C21.1696 22.5409 20.2121 22.2271 19.0771 21.2147C18.1937 20.4267 17.5973 19.4537 17.424 19.1562C17.2506 18.8587 17.4055 18.6979 17.5543 18.5497C17.688 18.4166 17.8514 18.2026 18 18.0291C18.1486 17.8557 18.1981 17.7316 18.2972 17.5334C18.3962 17.335 18.3467 17.1616 18.2724 17.0128C18.1981 16.8641 17.6038 15.4014 17.3562 14.8064C17.115 14.227 16.87 14.3054 16.6876 14.2963C16.5145 14.2876 16.3162 14.2858 16.1181 14.2858C15.92 14.2858 15.598 14.3601 15.3257 14.6576C15.0533 14.9551 14.2856 15.6741 14.2856 17.1366C14.2856 18.5993 15.3504 20.0123 15.499 20.2106C15.6476 20.409 17.5944 23.4104 20.5753 24.6975C21.2843 25.0037 21.8377 25.1866 22.2693 25.3235C22.9812 25.5497 23.629 25.5178 24.141 25.4412C24.7119 25.356 25.8991 24.7224 26.1468 24.0283C26.3943 23.3341 26.3943 22.7391 26.32 22.6152Z" fill="#BB8C5F"/>
<path d="M0 0V-1.42857H-1.42857V0H0ZM40 0H41.4286V-1.42857H40V0ZM40 40V41.4286H41.4286V40H40ZM0 40H-1.42857V41.4286H0V40ZM0 1.42857H40V-1.42857H0V1.42857ZM38.5714 0V40H41.4286V0H38.5714ZM40 38.5714H0V41.4286H40V38.5714ZM1.42857 40V0H-1.42857V40H1.42857Z" fill="#BB8C5F"/>
</svg>
