<svg width="28" height="28" fill="none" xmlns="http://www.w3.org/2000/svg"><path d="M6.744 13.79a4.25 4.25 0 1 1 6.697-5.11h1.118a4.25 4.25 0 1 1 6.697 5.11L14 21.05l-7.256-7.257v-.001Zm15.218.71A5.25 5.25 0 1 0 14 7.707 5.25 5.25 0 1 0 6.038 14.5L14 22.46l7.962-7.96Z" fill="#FAF6F2"/><path fill-rule="evenodd" clip-rule="evenodd" d="M7.044 13.667 14 20.624l7.044-7.045.212.212L14 21.049l-7.256-7.257v-.001a4.25 4.25 0 1 1 6.697-5.111h1.118a4.25 4.25 0 1 1 6.697 5.11l-.212-.211a3.951 3.951 0 0 0-5.109-5.994 3.95 3.95 0 0 0-1.115 1.243l-.087.152h-1.466l-.087-.152a3.949 3.949 0 0 0-6.91.089 3.95 3.95 0 0 0 .686 4.662l.088.088Zm-1.006.834A5.25 5.25 0 1 1 14 7.706a5.25 5.25 0 1 1 7.962 6.795L14 22.462l-7.962-7.96Zm16.224.122v.003L14 22.886l-8.174-8.173A5.55 5.55 0 1 1 14 7.219a5.55 5.55 0 1 1 8.262 7.404Z" fill="#FAF6F2"/></svg>