<svg width="192" height="63" fill="none" xmlns="http://www.w3.org/2000/svg"><path d="M35.196 47.928V47.2h5.922v.728h-2.576V57h-.77v-9.072h-2.576ZM51.332 57l-1.358-3.29H45.76L44.416 57h-.868l4.326-10.178L52.2 57h-.868Zm-3.458-8.4-1.806 4.382h3.612L47.874 48.6Zm7.16-.672V47.2h5.922v.728H58.38V57h-.77v-9.072h-2.576Zm10.24 0V47.2h5.922v.728H68.62V57h-.77v-9.072h-2.576Zm9.54 4.172c0-.719.12-1.381.363-1.988a4.728 4.728 0 0 1 1.022-1.596 4.649 4.649 0 0 1 1.54-1.064 4.955 4.955 0 0 1 1.946-.378c.7 0 1.344.126 1.932.378a4.613 4.613 0 0 1 1.554 1.064c.439.448.78.98 1.022 1.596.243.607.364 1.27.364 1.988 0 .719-.121 1.386-.364 2.002a4.922 4.922 0 0 1-1.022 1.596 4.714 4.714 0 0 1-1.554 1.05 4.853 4.853 0 0 1-1.932.378c-.7 0-1.348-.126-1.946-.378a4.751 4.751 0 0 1-1.54-1.05 4.918 4.918 0 0 1-1.022-1.596 5.413 5.413 0 0 1-.364-2.002Zm.811 0c0 .812.173 1.54.518 2.184a4.05 4.05 0 0 0 1.442 1.526c.616.364 1.316.546 2.1.546s1.48-.182 2.086-.546a3.912 3.912 0 0 0 1.442-1.526c.346-.644.518-1.372.518-2.184 0-.821-.172-1.55-.518-2.184a3.813 3.813 0 0 0-1.442-1.512c-.606-.373-1.302-.56-2.086-.56-.784 0-1.484.187-2.1.56a3.943 3.943 0 0 0-1.442 1.512c-.345.635-.518 1.363-.518 2.184Zm13.653 0c0-.719.121-1.381.364-1.988a4.73 4.73 0 0 1 1.022-1.596 4.65 4.65 0 0 1 1.54-1.064 4.955 4.955 0 0 1 1.946-.378c.7 0 1.344.126 1.932.378a4.613 4.613 0 0 1 1.554 1.064c.439.448.78.98 1.022 1.596.243.607.364 1.27.364 1.988 0 .719-.121 1.386-.364 2.002a4.92 4.92 0 0 1-1.022 1.596 4.714 4.714 0 0 1-1.554 1.05 4.853 4.853 0 0 1-1.932.378c-.7 0-1.349-.126-1.946-.378a4.753 4.753 0 0 1-1.54-1.05 4.92 4.92 0 0 1-1.022-1.596 5.413 5.413 0 0 1-.364-2.002Zm.812 0c0 .812.173 1.54.518 2.184a4.05 4.05 0 0 0 1.442 1.526c.616.364 1.316.546 2.1.546s1.48-.182 2.086-.546a3.911 3.911 0 0 0 1.442-1.526c.345-.644.518-1.372.518-2.184 0-.821-.173-1.55-.518-2.184a3.812 3.812 0 0 0-1.442-1.512c-.607-.373-1.302-.56-2.086-.56-.784 0-1.484.187-2.1.56a3.944 3.944 0 0 0-1.442 1.512c-.345.635-.518 1.363-.518 2.184Zm21.98 2.072c.159.41.35.789.574 1.134.224.336.504.602.84.798.336.196.742.294 1.218.294.635 0 1.13-.173 1.484-.518.364-.355.546-.803.546-1.344 0-.476-.107-.859-.322-1.148a2.368 2.368 0 0 0-.84-.7 7.854 7.854 0 0 0-1.064-.49c-.28-.103-.574-.224-.882-.364a4.963 4.963 0 0 1-.84-.532 2.706 2.706 0 0 1-.644-.77c-.158-.299-.238-.658-.238-1.078 0-.476.112-.891.336-1.246.224-.355.532-.63.924-.826a2.973 2.973 0 0 1 1.372-.308c.523 0 .971.098 1.344.294.383.196.7.443.952.742s.444.607.574.924l-.672.378a3.64 3.64 0 0 0-.448-.742 2.239 2.239 0 0 0-.714-.602c-.289-.168-.648-.252-1.078-.252-.569 0-1.008.15-1.316.448-.308.29-.462.653-.462 1.092 0 .541.196.98.588 1.316.402.336.999.644 1.792.924.364.13.733.308 1.106.532.383.224.7.523.952.896s.378.85.378 1.428c0 .532-.126.999-.378 1.4a2.603 2.603 0 0 1-1.022.938c-.429.224-.91.336-1.442.336-.56 0-1.059-.117-1.498-.35a3.494 3.494 0 0 1-1.078-.938 4.782 4.782 0 0 1-.672-1.274l.63-.392Zm10.772-6.972h.77v4.102h5.726V47.2h.784V57h-.784v-4.97h-5.726V57h-.77v-9.8Zm12.551 4.9c0-.719.122-1.381.364-1.988a4.745 4.745 0 0 1 1.022-1.596 4.653 4.653 0 0 1 1.54-1.064 4.957 4.957 0 0 1 1.946-.378c.7 0 1.344.126 1.932.378a4.6 4.6 0 0 1 1.554 1.064c.439.448.78.98 1.022 1.596.243.607.364 1.27.364 1.988 0 .719-.121 1.386-.364 2.002a4.904 4.904 0 0 1-1.022 1.596 4.7 4.7 0 0 1-1.554 1.05 4.853 4.853 0 0 1-1.932.378c-.7 0-1.348-.126-1.946-.378a4.756 4.756 0 0 1-1.54-1.05 4.937 4.937 0 0 1-1.022-1.596 5.427 5.427 0 0 1-.364-2.002Zm.812 0c0 .812.173 1.54.518 2.184a4.058 4.058 0 0 0 1.442 1.526c.616.364 1.316.546 2.1.546s1.48-.182 2.086-.546a3.91 3.91 0 0 0 1.442-1.526c.346-.644.518-1.372.518-2.184 0-.821-.172-1.55-.518-2.184a3.81 3.81 0 0 0-1.442-1.512c-.606-.373-1.302-.56-2.086-.56-.784 0-1.484.187-2.1.56a3.952 3.952 0 0 0-1.442 1.512c-.345.635-.518 1.363-.518 2.184Zm14.213-4.9h2.296c.616 0 1.162.117 1.638.35.486.233.868.565 1.148.994.28.43.42.947.42 1.554 0 .597-.14 1.115-.42 1.554-.28.43-.662.76-1.148.994-.476.233-1.022.35-1.638.35h-1.526V57h-.77v-9.8Zm2.296.728h-1.526v4.34h1.526c.719 0 1.302-.182 1.75-.546.448-.373.672-.915.672-1.624 0-.71-.224-1.246-.672-1.61-.448-.373-1.031-.56-1.75-.56ZM.113 38 3 40.887 5.887 38 3 35.113.113 38Zm191.774 0L189 35.113 186.113 38 189 40.887 191.887 38ZM3 38.5h186v-1H3v1Zm25.49-9.8h.15c.14 0 .27-.06.39-.18s.22-.26.3-.42c.1-.16.17-.33.21-.51.04-.2.06-.38.06-.54V11.27l-7.74 18.06-7.35-17.13v14.85c0 .16.02.34.06.54.04.18.1.35.18.51.1.16.21.3.33.42.12.12.26.18.42.18h.15v.3h-3.27v-.3h.15c.14 0 .27-.06.39-.18s.22-.26.3-.42c.08-.16.14-.33.18-.51.04-.2.06-.38.06-.54V11.06c0-.14-.02-.3-.06-.48-.04-.18-.1-.35-.18-.51-.08-.16-.18-.29-.3-.39a.545.545 0 0 0-.39-.18h-.15v-.3h3.06l6.96 16.41L29.36 9.2h3.39v.3h-.15c-.16 0-.3.06-.42.18-.12.1-.23.23-.33.39-.08.16-.14.33-.18.51-.04.18-.06.34-.06.48v15.99c0 .16.02.34.06.54.04.18.1.35.18.51.1.16.21.3.33.42.12.12.26.18.42.18h.15v.3h-4.26v-.3Zm11.26 0h.15v.3h-4.23v-.3h.15c.14 0 .27-.06.39-.18s.22-.26.3-.42c.1-.16.17-.33.21-.51.04-.2.06-.38.06-.54V11.06c0-.14-.02-.3-.06-.48-.04-.18-.11-.35-.21-.51-.08-.16-.18-.29-.3-.39a.545.545 0 0 0-.39-.18h-.15v-.3h5.22c2 0 3.54.39 4.62 1.17 1.1.78 1.65 1.93 1.65 3.45 0 .76-.13 1.43-.39 2.01-.24.56-.57 1.05-.99 1.47-.42.4-.92.73-1.5.99-.56.24-1.16.42-1.8.54l2.16 3.3c.52.8 1.05 1.59 1.59 2.37.54.76 1.07 1.55 1.59 2.37.14.2.29.41.45.63.18.22.36.42.54.6.2.18.4.33.6.45.22.1.44.15.66.15v.3h-1.29c-.8 0-1.46-.19-1.98-.57-.5-.4-.92-.86-1.26-1.38-.9-1.32-1.8-2.66-2.7-4.02-.88-1.36-1.76-2.7-2.64-4.02-.22-.02-.46-.04-.72-.06-.24-.04-.47-.08-.69-.12v8.22c0 .16.02.34.06.54.04.18.1.35.18.51.1.16.2.3.3.42.12.12.26.18.42.18Zm-.96-18.48v7.62h.15c.16.02.41.04.75.06h1.32c.42 0 .86-.06 1.32-.18.48-.14.92-.36 1.32-.66.42-.32.76-.73 1.02-1.23.28-.5.42-1.13.42-1.89s-.15-1.38-.45-1.86a3 3 0 0 0-1.2-1.14c-.5-.28-1.11-.47-1.83-.57-.72-.1-1.51-.15-2.37-.15h-.45Zm13.291 17.49c0-.4.13-.74.39-1.02.28-.28.62-.42 1.02-.42s.74.14 1.02.42c.28.28.42.62.42 1.02s-.14.74-.42 1.02c-.28.26-.62.39-1.02.39s-.74-.13-1.02-.39c-.26-.28-.39-.62-.39-1.02Zm13.589.99h.15c.14 0 .27-.06.39-.18s.22-.26.3-.42c.1-.16.17-.33.21-.51.04-.2.06-.38.06-.54V11.06c0-.14-.02-.3-.06-.48-.04-.18-.1-.35-.18-.51-.08-.16-.18-.29-.3-.39a.576.576 0 0 0-.42-.18h-.15v-.3h5.79c1.58 0 3 .28 4.26.84 1.26.54 2.32 1.28 3.18 2.22.88.92 1.55 1.98 2.01 3.18.46 1.2.69 2.45.69 3.75 0 1.22-.22 2.42-.66 3.6-.44 1.16-1.1 2.2-1.98 3.12-.88.92-1.98 1.67-3.3 2.25-1.32.56-2.85.84-4.59.84h-5.4v-.3Zm13.89-9.06c0-1.28-.23-2.49-.69-3.63a8.814 8.814 0 0 0-1.95-2.97c-.82-.86-1.8-1.54-2.94-2.04-1.12-.5-2.34-.75-3.66-.75h-1.53v17.7h1.59c1.08 0 2.16-.16 3.24-.48 1.1-.34 2.09-.85 2.97-1.53.88-.7 1.59-1.57 2.13-2.61.56-1.04.84-2.27.84-3.69Zm8.706 9.06h.15v.3h-4.23v-.3h.15c.14 0 .27-.06.39-.18s.22-.26.3-.42c.1-.16.17-.33.21-.51.04-.2.06-.38.06-.54V11.06c0-.14-.02-.3-.06-.48-.04-.18-.11-.35-.21-.51-.08-.16-.18-.29-.3-.39a.545.545 0 0 0-.39-.18h-.15v-.3h5.22c2 0 3.54.39 4.62 1.17 1.1.78 1.65 1.93 1.65 3.45 0 .76-.13 1.43-.39 2.01-.24.56-.57 1.05-.99 1.47-.42.4-.92.73-1.5.99-.56.24-1.16.42-1.8.54l2.16 3.3c.52.8 1.05 1.59 1.59 2.37.54.76 1.07 1.55 1.59 2.37.14.2.29.41.45.63.18.22.36.42.54.6.2.18.4.33.6.45.22.1.44.15.66.15v.3h-1.29c-.8 0-1.46-.19-1.98-.57-.5-.4-.92-.86-1.26-1.38-.9-1.32-1.8-2.66-2.7-4.02-.88-1.36-1.76-2.7-2.64-4.02-.22-.02-.46-.04-.72-.06-.24-.04-.47-.08-.69-.12v8.22c0 .16.02.34.06.54.04.18.1.35.18.51.1.16.2.3.3.42.12.12.26.18.42.18Zm-.96-18.48v7.62h.15c.16.02.41.04.75.06h1.32c.42 0 .86-.06 1.32-.18.48-.14.92-.36 1.32-.66.42-.32.76-.73 1.02-1.23.28-.5.42-1.13.42-1.89s-.15-1.38-.45-1.86a3 3 0 0 0-1.2-1.14c-.5-.28-1.11-.47-1.83-.57-.72-.1-1.51-.15-2.37-.15h-.45Zm13.201-1.02h4.29v.3h-.15c-.14 0-.27.06-.39.18-.12.1-.22.23-.3.39-.08.14-.15.31-.21.51-.04.18-.06.34-.06.48v15.99c0 .16.02.34.06.54.04.18.1.35.18.51.1.16.2.3.3.42.12.12.26.18.42.18h.15v.3h-4.29v-.3h.15c.16 0 .3-.05.42-.15.12-.12.22-.26.3-.42.1-.18.17-.36.21-.54.04-.2.06-.38.06-.54V11.06c0-.14-.02-.3-.06-.48-.04-.18-.11-.35-.21-.51-.08-.16-.18-.29-.3-.39a.576.576 0 0 0-.42-.18h-.15v-.3Zm19.325 14.49c0 1-.2 1.86-.6 2.58-.4.7-.92 1.27-1.56 1.71-.62.44-1.33.76-2.13.96-.78.2-1.56.3-2.34.3-.8 0-1.49-.08-2.07-.24-.58-.16-1.11-.31-1.59-.45-.32-.1-.61-.18-.87-.24a2.64 2.64 0 0 0-.78-.12v-3.42h.3c0 .76.19 1.37.57 1.83.4.44.86.78 1.38 1.02.52.24 1.04.4 1.56.48.52.06.9.09 1.14.09.86 0 1.6-.12 2.22-.36.62-.26 1.13-.59 1.53-.99.4-.42.69-.88.87-1.38.2-.5.3-1.01.3-1.53 0-.66-.14-1.21-.42-1.65-.28-.46-.65-.86-1.11-1.2-.44-.34-.95-.63-1.53-.87-.58-.24-1.17-.48-1.77-.72-.68-.26-1.35-.53-2.01-.81a8.03 8.03 0 0 1-1.77-1.02c-.52-.42-.94-.91-1.26-1.47-.32-.58-.48-1.29-.48-2.13 0-.88.17-1.64.51-2.28.34-.66.79-1.2 1.35-1.62.58-.42 1.23-.73 1.95-.93.74-.22 1.49-.33 2.25-.33.52 0 1.01.04 1.47.12.46.06.9.14 1.32.24.34.08.67.15.99.21.32.04.63.06.93.06v3.09h-.3c-.04-1.04-.45-1.74-1.23-2.1-.78-.38-1.86-.57-3.24-.57-.8 0-1.46.14-1.98.42-.5.26-.9.59-1.2.99-.3.38-.51.8-.63 1.26-.1.44-.15.83-.15 1.17 0 .56.12 1.04.36 1.44.26.4.6.75 1.02 1.05.42.3.9.57 1.44.81.56.24 1.14.47 1.74.69.68.26 1.37.54 2.07.84.7.3 1.32.67 1.86 1.11.56.44 1.01.98 1.35 1.62.36.64.54 1.42.54 2.34Zm6.697 5.01h.15v.3h-4.29v-.3h.15c.16 0 .3-.06.42-.18s.22-.26.3-.42c.1-.16.17-.33.21-.51.04-.2.06-.38.06-.54V11.06c0-.14-.02-.3-.06-.48-.04-.18-.11-.35-.21-.51-.08-.16-.18-.29-.3-.39a.545.545 0 0 0-.39-.18h-.15v-.3h4.29v.3h-.15c-.16 0-.3.06-.42.18-.12.1-.23.23-.33.39-.08.16-.15.33-.21.51-.04.18-.06.34-.06.48v6.96l7.62-7.56c.12-.14.18-.3.18-.48 0-.32-.12-.48-.36-.48h-.15v-.3h3.66v.3h-.15c-.28 0-.57.1-.87.3-.3.2-.6.45-.9.75l-6.3 6.27 6.63 10.05c.02.04.11.16.27.36.16.2.35.41.57.63.24.22.5.42.78.6.3.16.6.24.9.24v.3h-.72c-.6 0-1.11-.03-1.53-.09-.4-.08-.75-.2-1.05-.36-.3-.16-.57-.36-.81-.6-.22-.24-.45-.54-.69-.9l-5.82-8.79-1.26 1.29v7.5c0 .16.02.33.06.51.06.18.13.36.21.54.08.16.18.3.3.42s.26.18.42.18Zm12.852 0h.15c.16 0 .3-.05.42-.15.12-.12.22-.26.3-.42.1-.16.17-.33.21-.51.06-.18.09-.35.09-.51V11.06c0-.14-.03-.3-.09-.48-.04-.18-.11-.35-.21-.51-.08-.16-.18-.29-.3-.39a.576.576 0 0 0-.42-.18h-.15v-.3h11.55v2.79h-.3c-.04-.46-.22-.86-.54-1.2-.32-.36-.82-.54-1.5-.54h-6.03v7.59h4.98c.46 0 .84-.14 1.14-.42.32-.28.48-.61.48-.99h.3v3.75h-.3c0-.36-.15-.67-.45-.93-.3-.26-.69-.39-1.17-.39h-4.98v9.09h6.57c.38 0 .71-.09.99-.27.28-.18.51-.39.69-.63.2-.26.34-.53.42-.81.1-.3.15-.55.15-.75h.3V29h-12.3v-.3Zm14.561 0h.15c.16 0 .3-.05.42-.15.12-.12.22-.26.3-.42.1-.16.17-.33.21-.51.06-.18.09-.35.09-.51V11.06c0-.14-.03-.3-.09-.48-.04-.18-.11-.35-.21-.51-.08-.16-.18-.29-.3-.39a.576.576 0 0 0-.42-.18h-.15v-.3h4.32v.3h-.15c-.16 0-.3.06-.42.18-.12.1-.22.23-.3.39-.08.16-.15.33-.21.51-.04.18-.06.34-.06.48v16.83h6.57c.38 0 .71-.09.99-.27.28-.18.51-.4.69-.66.2-.28.34-.57.42-.87.1-.32.15-.61.15-.87h.3V29h-12.3v-.3Zm13.945 0h.15c.16 0 .3-.05.42-.15.12-.12.22-.26.3-.42.1-.16.17-.33.21-.51.06-.18.09-.35.09-.51V11.06c0-.14-.03-.3-.09-.48-.04-.18-.11-.35-.21-.51-.08-.16-.18-.29-.3-.39a.576.576 0 0 0-.42-.18h-.15v-.3h4.32v.3h-.15c-.16 0-.3.06-.42.18-.12.1-.22.23-.3.39-.08.16-.15.33-.21.51-.04.18-.06.34-.06.48v16.83h6.57c.38 0 .71-.09.99-.27.28-.18.51-.4.69-.66.2-.28.34-.57.42-.87.1-.32.15-.61.15-.87h.3V29h-12.3v-.3Z" fill="#BB8C5F"/></svg>