<svg width="40" height="40" fill="none" xmlns="http://www.w3.org/2000/svg"><path d="M0 0h40v40H0V0Z" fill="#050402"/><path d="m16.673 24.069-.34 5.098c.5 0 .721-.229 1-.5l2.402-2.336 4.998 3.692c.92.508 1.584.245 1.813-.854l3.28-15.46c.336-1.347-.513-1.958-1.393-1.558L9.168 19.579c-1.315.528-1.307 1.261-.24 1.588l4.944 1.543 11.446-7.22c.54-.328 1.036-.152.63.21l-9.275 8.368ZM0 0v-1.429h-1.429V0H0Zm40 0h1.429v-1.429H40V0Zm0 40v1.429h1.429V40H40ZM0 40h-1.429v1.429H0V40ZM0 1.429h40V-1.43H0v2.86ZM38.571 0v40h2.858V0H38.57ZM40 38.571H0v2.858h40V38.57ZM1.429 40V0H-1.43v40h2.86Z" fill="#BB8C5F"/></svg>