<svg width="20" height="20" fill="none" xmlns="http://www.w3.org/2000/svg"><circle cx="10" cy="10" r="9.5" stroke="#D0D0D0"/><path d="M12.052 7.57c0-.737-.227-1.303-.68-1.7-.442-.397-1.048-.595-1.819-.595-.567 0-1.054.13-1.462.391a3.05 3.05 0 0 0-.986 1.02L6 5.989c.26-.397.55-.742.867-1.037a3.128 3.128 0 0 1 1.156-.697C8.488 4.085 9.054 4 9.723 4c.714 0 1.349.159 1.904.476a3.37 3.37 0 0 1 1.309 1.275c.329.533.493 1.139.493 1.819a3.22 3.22 0 0 1-.51 1.768c-.34.521-.782.946-1.326 1.275a3.87 3.87 0 0 1-1.768.527l-.119 2.04h-1.02l-.34-2.975h.442c.68 0 1.264-.13 1.751-.391.487-.26.861-.59 1.122-.986.26-.408.391-.827.391-1.258Zm-3.757 7.82a.9.9 0 0 1 .272-.663.94.94 0 0 1 .663-.272.9.9 0 0 1 .663.272.902.902 0 0 1 .272.663c0 .25-.09.47-.272.663a.902.902 0 0 1-.663.272.94.94 0 0 1-.663-.272.94.94 0 0 1-.272-.663Z" fill="#D0D0D0"/></svg>