<svg width="40" height="40" fill="none" xmlns="http://www.w3.org/2000/svg"><path d="M0 0h40v40H0V0Z" fill="#050402"/><path fill-rule="evenodd" clip-rule="evenodd" d="M32.456 19.044c-.002 6.556-5.335 11.89-11.892 11.893h-.005a11.88 11.88 0 0 1-5.683-1.448L8.57 31.143l1.688-6.163a11.87 11.87 0 0 1-1.588-5.945c.003-6.557 5.338-11.892 11.893-11.892a11.816 11.816 0 0 1 8.413 3.488 11.82 11.82 0 0 1 3.48 8.413Zm-21.03 9.274 3.742-.982.36.215a9.87 9.87 0 0 0 5.032 1.377h.004c5.448 0 9.882-4.434 9.884-9.884a9.825 9.825 0 0 0-2.892-6.994 9.817 9.817 0 0 0-6.988-2.898c-5.453 0-9.887 4.434-9.89 9.884 0 1.867.523 3.686 1.512 5.26l.235.374-.998 3.648Z" fill="#BB8C5F"/><path d="M26.32 22.615c-.074-.124-.272-.198-.57-.347-.297-.149-1.758-.867-2.03-.967-.272-.099-.47-.148-.669.15-.198.296-.767.966-.94 1.164-.174.199-.347.223-.644.075-.297-.15-1.255-.463-2.39-1.475-.883-.788-1.48-1.761-1.653-2.059-.173-.297-.018-.458.13-.606.134-.133.297-.347.446-.52.149-.174.198-.298.297-.497.1-.198.05-.371-.025-.52-.074-.149-.668-1.612-.916-2.207-.241-.579-.486-.5-.668-.51-.173-.008-.372-.01-.57-.01-.198 0-.52.074-.792.372-.273.297-1.04 1.016-1.04 2.479 0 1.462 1.064 2.875 1.213 3.074.149.198 2.095 3.2 5.076 4.487.71.306 1.263.489 1.694.625.712.227 1.36.195 1.872.118.57-.085 1.758-.719 2.006-1.413.247-.694.247-1.289.173-1.413ZM0 0v-1.429h-1.429V0H0Zm40 0h1.429v-1.429H40V0Zm0 40v1.429h1.429V40H40ZM0 40h-1.429v1.429H0V40ZM0 1.429h40V-1.43H0v2.86ZM38.571 0v40h2.858V0H38.57ZM40 38.571H0v2.858h40V38.57ZM1.429 40V0H-1.43v40h2.86Z" fill="#BB8C5F"/></svg>