<svg width="40" height="40" fill="none" xmlns="http://www.w3.org/2000/svg"><path d="M0 0h40v40H0V0Z" fill="#050402"/><path d="M25.32 16.91c-.09-.734-.316-1.31-.716-1.822-.519-.657-1.183-1.051-2.165-1.285-.64-.156-.9-.138-1.131.074-.216.199-.258.597-.093.855.116.187.25.255.622.328.495.091.837.21 1.149.388.66.383.969.982 1.002 1.951.015.455.054.595.213.756a.68.68 0 0 0 1.039-.115c.081-.133.094-.19.102-.5a4.915 4.915 0 0 0-.022-.63Z" fill="#BB8C5F"/><path d="M27.909 17.74c-.13-2.251-1.009-4.062-2.58-5.336a7.264 7.264 0 0 0-3.13-1.448c-.43-.086-1.22-.155-1.356-.115a.833.833 0 0 0-.39.301c-.086.137-.105.441-.032.617.118.294.336.399.949.452.944.083 1.918.416 2.654.908a5.577 5.577 0 0 1 1.94 2.229c.374.774.604 1.89.597 2.889-.002.361.054.566.199.715.218.23.537.28.819.127.312-.165.385-.453.33-1.34Zm2.865 8.667a2.468 2.468 0 0 0-.22-.441c-.461-.698-2.939-2.643-4.176-3.278-.707-.364-1.23-.485-1.618-.371-.417.117-.637.312-1.336 1.183-.282.35-.571.676-.648.728-.19.132-.564.238-.827.238-.611-.003-1.72-.4-2.573-.922-.663-.404-1.512-1.128-2.164-1.845-.768-.841-1.292-1.584-1.705-2.422-.535-1.076-.67-1.734-.447-2.216.055-.12.128-.25.161-.29.033-.037.377-.32.758-.628.747-.596.867-.732 1.006-1.14.176-.518.129-1.047-.142-1.58-.209-.404-.754-1.286-1.15-1.856-.523-.75-1.826-2.352-2.086-2.569-.468-.382-1.069-.448-1.731-.19-.7.271-2.01 1.33-2.57 2.068-.505.67-.699 1.143-.728 1.768-.026.514.018.728.289 1.386 2.12 5.16 5.282 9.279 9.627 12.55 2.269 1.709 4.622 3.01 7.064 3.899 1.424.518 2.042.544 2.77.117.308-.183 1.07-.966 1.494-1.536.703-.948.963-1.385 1.036-1.734.051-.24.011-.654-.084-.92Z" fill="#BB8C5F"/><path d="M30.545 18.256a10.272 10.272 0 0 0-.707-3.482c-.44-1.145-.886-1.892-1.727-2.903-.795-.948-1.413-1.49-2.393-2.091-1.367-.84-3.03-1.395-4.895-1.629-.636-.081-.78-.076-.975.055-.378.247-.373.864.006 1.107.126.078.237.106.746.173.78.105 1.282.204 1.878.367 2.336.64 4.133 1.949 5.334 3.891 1.005 1.62 1.422 3.239 1.363 5.307-.021.699-.006.822.1.99.205.313.743.375 1.02.115.171-.158.204-.277.237-.875.017-.313.02-.773.013-1.025ZM0 0v-1.429h-1.429V0H0Zm40 0h1.429v-1.429H40V0Zm0 40v1.429h1.429V40H40ZM0 40h-1.429v1.429H0V40ZM0 1.429h40V-1.43H0v2.86ZM38.571 0v40h2.858V0H38.57ZM40 38.571H0v2.858h40V38.57ZM1.429 40V0H-1.43v40h2.86Z" fill="#BB8C5F"/></svg>